<svg width="24" height="23" viewBox="0 0 24 23" fill="none" xmlns="http://www.w3.org/2000/svg">
<path fill-rule="evenodd" clip-rule="evenodd" d="M17.9027 5.6618C18.1735 5.92631 18.3859 6.24235 18.5265 6.59032L18.5285 6.59083C18.8995 7.50497 18.879 9.49533 18.8657 10.7857C18.8635 10.9992 18.8615 11.1935 18.8615 11.3606C18.8615 11.5277 18.8635 11.7221 18.8657 11.9356C18.879 13.2266 18.8995 15.2193 18.5285 16.1304C18.3879 16.4784 18.1756 16.7944 17.9048 17.0589C17.6339 17.3234 17.3103 17.5308 16.954 17.6681C16.0188 18.0306 13.9842 18.0104 12.6625 17.9974C12.443 17.9952 12.2432 17.9932 12.0713 17.9932C11.9026 17.9932 11.707 17.995 11.4922 17.9971C10.1701 18.0095 8.12351 18.0287 7.18812 17.6681C6.8318 17.5308 6.50818 17.3234 6.23732 17.0589C5.96646 16.7944 5.75415 16.4784 5.61355 16.1304C5.24258 15.213 5.2621 13.2111 5.27467 11.9211C5.2767 11.7131 5.27855 11.5236 5.27855 11.3601C5.27855 11.1961 5.27669 11.0059 5.27465 10.797C5.26204 9.5064 5.24248 7.50427 5.61148 6.59032C5.75208 6.24235 5.96439 5.92631 6.23525 5.6618C6.50611 5.39729 6.82973 5.18995 7.18605 5.05264C8.12123 4.69011 10.1566 4.71027 11.4783 4.72336C11.6977 4.72553 11.8975 4.72751 12.0692 4.72751C12.2378 4.72751 12.4334 4.72567 12.648 4.72366C13.9698 4.71125 16.0165 4.69203 16.9519 5.05264C17.3082 5.18995 17.6318 5.39729 17.9027 5.6618ZM9.71027 14.8089C10.4085 15.2645 11.2294 15.5076 12.0691 15.5076C12.6269 15.5083 13.1793 15.4015 13.6947 15.1934C14.2101 14.9852 14.6785 14.6798 15.0729 14.2947C15.4673 13.9095 15.78 13.4522 15.9931 12.9488C16.2062 12.4455 16.3156 11.906 16.3149 11.3613C16.3149 10.5413 16.0659 9.7396 15.5994 9.05775C15.1328 8.37589 14.4697 7.84444 13.6939 7.53062C12.9181 7.21679 12.0644 7.13468 11.2408 7.29467C10.4172 7.45466 9.66066 7.84955 9.06688 8.42943C8.47309 9.0093 8.06872 9.7481 7.9049 10.5524C7.74107 11.3567 7.82515 12.1904 8.14651 12.948C8.46786 13.7057 9.01206 14.3533 9.71027 14.8089ZM15.9392 7.84601C16.1022 7.95229 16.2939 8.00897 16.4899 8.00887L16.492 8.01089C16.6222 8.01082 16.751 7.98566 16.8712 7.93684C16.9914 7.88802 17.1006 7.81651 17.1924 7.72641C17.2842 7.6363 17.357 7.52938 17.4064 7.41177C17.4558 7.29416 17.481 7.16818 17.4804 7.04106C17.4804 6.84962 17.4223 6.66248 17.3134 6.50332C17.2045 6.34415 17.0496 6.2201 16.8685 6.14687C16.6874 6.07363 16.4881 6.05449 16.2959 6.09188C16.1036 6.12926 15.927 6.22149 15.7884 6.35689C15.6499 6.49229 15.5555 6.66478 15.5173 6.85256C15.4792 7.04033 15.4989 7.23494 15.574 7.41177C15.649 7.58861 15.7761 7.73972 15.9392 7.84601Z" fill="#025ED4"/>
<path fill-rule="evenodd" clip-rule="evenodd" d="M19.9304 0H4.20765H2.95617H0.470825V2.42711V3.92469V18.7288V20.2259V22.6535H4.20765V22.6531H19.9304V22.6537H23.6673V20.2461L23.6674 20.2259V2.42711L23.6673 2.40693V0H21.182H19.9304ZM20.2956 14.6638C20.2288 15.9598 19.9259 17.1081 18.9571 18.0517C17.9883 18.9952 16.8135 19.2971 15.488 19.3588C14.1205 19.4341 10.0208 19.4341 8.6533 19.3588C7.32623 19.2935 6.15449 18.9972 5.18417 18.0517C4.21385 17.1061 3.90888 15.9573 3.84571 14.6638C3.76856 13.3279 3.76856 9.32366 3.84571 7.98925C3.91251 6.69327 4.21178 5.54494 5.18417 4.6014C6.15656 3.65786 7.33141 3.35953 8.6533 3.29784C10.0208 3.2225 14.1205 3.2225 15.488 3.29784C16.8151 3.36307 17.9904 3.65938 18.9571 4.60494C19.9238 5.55051 20.2324 6.69934 20.2956 7.99532C20.3727 9.32618 20.3727 13.3269 20.2956 14.6638Z" fill="#025ED4"/>
</svg>
