<svg width="24" height="23" viewBox="0 0 24 23" fill="none" xmlns="http://www.w3.org/2000/svg">
<path d="M11.8011 4.97609C10.0981 4.97776 8.46541 5.63905 7.26113 6.81488C6.05686 7.9907 5.37937 9.58503 5.37732 11.2481C5.37603 12.4322 5.71657 13.586 6.35894 14.585L6.51115 14.8218L5.86233 17.1358L8.2938 16.5136L8.52728 16.6496C9.5173 17.2218 10.6468 17.5234 11.7972 17.5226H11.7985C13.5009 17.5202 15.1329 16.8589 16.3367 15.6834C17.5406 14.508 18.2182 12.9143 18.2209 11.2518C18.2239 10.4278 18.0594 9.61135 17.737 8.84979C17.4146 8.08824 16.9408 7.39671 16.3428 6.81524C15.748 6.23055 15.0403 5.76693 14.2606 5.45123C13.481 5.13554 12.645 4.97404 11.8011 4.97609ZM15.5779 13.9425C15.4167 14.3834 14.6453 14.784 14.2751 14.8382C13.8693 14.9065 13.4527 14.8811 13.0587 14.7639C12.685 14.6508 12.3177 14.5184 11.9584 14.3671C10.021 13.5508 8.75688 11.6474 8.65885 11.5202C8.56339 11.3942 7.872 10.4973 7.872 9.57017C7.872 8.64178 8.36991 8.18577 8.54663 7.99682C8.61151 7.92522 8.69082 7.86746 8.7796 7.82715C8.86837 7.78683 8.96471 7.76483 9.06259 7.76252C9.19158 7.76252 9.31928 7.76378 9.43279 7.76882C9.55146 7.77386 9.71012 7.72473 9.8662 8.09256C10.0274 8.47046 10.4144 9.39759 10.4621 9.49207C10.5099 9.58529 10.5421 9.69614 10.4789 9.82211C10.4144 9.94933 10.3835 10.0262 10.2854 10.137C10.19 10.2479 10.0829 10.3827 9.99648 10.4683C9.89974 10.5615 9.79913 10.6636 9.91135 10.8525C10.0249 11.0402 10.4118 11.6587 10.9845 12.1588C11.7224 12.8013 12.3454 12.999 12.5376 13.0948C12.7311 13.188 12.8433 13.1741 12.9568 13.0469C13.069 12.9197 13.4392 12.4964 13.5682 12.3087C13.6972 12.1198 13.8249 12.1513 14.0029 12.213C14.1797 12.2772 15.129 12.732 15.3212 12.8265C15.5121 12.9197 15.6424 12.9675 15.6914 13.0469C15.7379 13.125 15.7379 13.5016 15.5779 13.9425Z" fill="#025ED4"/>
<path fill-rule="evenodd" clip-rule="evenodd" d="M19.1141 0H4.46384H1.47949H0.190796V1.26323V3.49164V21.475C0.190796 21.4832 0.190877 21.4914 0.19104 21.4996V22.7386H4.37688V22.7382H19.1141V22.7387H23.3872V21.4932L23.3873 21.475V1.26323L23.3872 1.24504V0H22.0986H19.1141ZM11.8406 18.8171H11.838C10.5494 18.8173 9.28132 18.5007 8.14978 17.8962L4.05688 18.9485L5.15228 15.0274C4.47569 13.8769 4.11985 12.5721 4.12052 11.2441C4.12118 9.91614 4.47832 8.61169 5.15606 7.46182C5.8338 6.31194 6.80828 5.35713 7.98162 4.69327C9.15496 4.02941 10.4858 3.67989 11.8406 3.6798C12.8555 3.67705 13.8608 3.87182 14.7984 4.25282C15.7359 4.63382 16.5869 5.19346 17.3021 5.89931C18.0206 6.60085 18.59 7.43514 18.9774 8.35388C19.3647 9.27261 19.5623 10.2575 19.5586 11.2516C19.5555 13.2572 18.7414 15.1798 17.2947 16.5979C15.8479 18.0161 13.8866 18.8141 11.8406 18.8171Z" fill="#025ED4"/>
</svg>
