<svg width="128" height="137" viewBox="0 0 128 137" fill="none" xmlns="http://www.w3.org/2000/svg">
<g filter="url(#filter0_d_0_43)">
<path d="M79.637 103.369L86.857 112.622L98.143 106.105L93.7513 95.2421C95.73 93.5674 97.5676 91.7326 99.2423 89.7484L110.105 94.1428L116.622 82.8569L107.369 75.6368C108.237 73.2211 108.921 70.724 109.383 68.1427L121 66.5142V53.4856L109.383 51.857C108.921 49.2757 108.237 46.7786 107.369 44.3629L116.622 37.1428L110.105 25.8569L99.2423 30.2513C97.5676 28.2699 95.73 26.4323 93.7513 24.7576L98.143 13.895L86.857 7.378L79.637 16.6337C77.2213 15.7625 74.7241 15.0784 72.1429 14.617L70.5143 2.99989H57.4857L55.8571 14.617C53.2759 15.0784 50.7785 15.7625 48.3644 16.6337L41.1416 7.378L29.8584 13.895L34.249 24.7576C32.2695 26.4323 30.4319 28.2699 28.7566 30.2513L17.8943 25.8569L11.379 37.1428L20.633 44.3629C19.7615 46.7786 19.0797 49.2757 18.6185 51.857L7 53.4856V66.5142L18.6185 68.1427C19.0797 70.724 19.7615 73.2211 20.633 75.6368L11.379 82.8569L17.8943 94.1428L28.7566 89.7484C30.4319 91.7326 32.2695 93.5674 34.249 95.2421L29.8584 106.105L41.1416 112.622L48.3644 103.369" stroke="#1498D5" stroke-width="2.66667" stroke-miterlimit="10" stroke-linejoin="round"/>
<path d="M64 24.7143C83.4886 24.7143 99.2857 40.5115 99.2857 60.0001" stroke="#1498D5" stroke-width="2.66667" stroke-miterlimit="10" stroke-linecap="round" stroke-linejoin="round"/>
<path d="M47.8895 91.4016C36.5031 85.5469 28.7144 73.6828 28.7144 60.0001" stroke="#1498D5" stroke-width="2.66667" stroke-miterlimit="10" stroke-linecap="round" stroke-linejoin="round"/>
<path d="M72.1432 127.857V80.7643C72.1432 79.6895 72.7892 78.753 73.7555 78.2834C80.8479 74.8471 85.7146 68.4849 85.7146 60C85.7146 52.6145 82.0286 46.0893 76.3938 42.1671C74.6078 40.924 72.1459 42.2513 72.1459 44.4282L72.1432 57.2858C72.1432 58.784 70.9299 60 69.4289 60H58.5718C57.0708 60 55.8575 58.784 55.8575 57.2858L55.8548 44.4282C55.8548 42.2513 53.3929 40.924 51.6069 42.1671C45.9737 46.0893 42.286 52.6145 42.286 60C42.286 68.4849 47.1528 74.8471 54.2452 78.2834C55.2115 78.753 55.8575 79.6895 55.8575 80.7643V127.857" stroke="#1498D5" stroke-width="2.66667" stroke-miterlimit="10" stroke-linejoin="round"/>
</g>
<defs>
<filter id="filter0_d_0_43" x="0.666672" y="0.666565" width="126.667" height="136.191" filterUnits="userSpaceOnUse" color-interpolation-filters="sRGB">
<feFlood flood-opacity="0" result="BackgroundImageFix"/>
<feColorMatrix in="SourceAlpha" type="matrix" values="0 0 0 0 0 0 0 0 0 0 0 0 0 0 0 0 0 0 127 0" result="hardAlpha"/>
<feOffset dy="4"/>
<feGaussianBlur stdDeviation="2.5"/>
<feComposite in2="hardAlpha" operator="out"/>
<feColorMatrix type="matrix" values="0 0 0 0 0 0 0 0 0 0 0 0 0 0 0 0 0 0 0.2 0"/>
<feBlend mode="normal" in2="BackgroundImageFix" result="effect1_dropShadow_0_43"/>
<feBlend mode="normal" in="SourceGraphic" in2="effect1_dropShadow_0_43" result="shape"/>
</filter>
</defs>
</svg>
