<svg width="108" height="117" viewBox="0 0 108 117" fill="none" xmlns="http://www.w3.org/2000/svg">
<path d="M91.5 79.5H68.5V74.5H91.5V79.5ZM107.5 103.5H84.5V98.5H107.5V103.5ZM99.5 91.5H76.5V86.5H99.5V91.5Z" stroke="#1498D5"/>
<path d="M54.7989 74.6945L54.7989 74.7029L54.7989 74.703C54.7989 74.7072 54.7996 74.7942 54.8045 74.9595C54.8094 75.1266 54.8185 75.3699 54.835 75.6813C54.868 76.3044 54.9307 77.1994 55.0496 78.3025C55.2875 80.5102 55.7492 83.5424 56.6432 86.8903C58.4378 93.6102 61.9389 101.471 68.7315 106.568C69.5682 107.195 70.1863 108.07 70.4982 109.068C70.8101 110.067 70.7999 111.138 70.4692 112.13C70.1384 113.122 69.5038 113.986 68.6553 114.597C67.8068 115.209 66.7873 115.538 65.7414 115.538H6.02566H6.02486V114.538L54.7989 74.6945ZM54.7989 74.6945C54.7693 71.1609 53.8269 67.695 52.0629 64.633C50.464 61.8574 48.2393 59.4993 45.5713 57.7431L74.5706 7.48326L75.0699 6.61777L74.2048 6.11772L67.3134 2.13423L66.4471 1.63349L65.9469 2.50006L36.1252 54.1617M54.7989 74.6945L36.1252 54.1617M36.1252 54.1617C32.4814 53.466 28.7215 53.6348 25.149 54.6589C21.3415 55.7504 17.8682 57.7787 15.0466 60.5584L36.1252 54.1617ZM25.9025 90.6368H17.9355C18.1759 95.6875 18.9701 100.695 20.303 105.571M19.544 106.571H9.96851C10.092 99.2571 11.1237 83.1001 17.1508 72.5L24 63L31.5 60.5H39L45 65.1322L47.1584 72.5" stroke="#1498D5" stroke-width="2"/>
<path d="M29.5 64.5937C13.9 67.7937 11.1667 94.5937 11 107.594L22.5 108.094C17.7 98.0937 19.8333 89.5937 21.5 86.5937H27C25.8 93.7937 29.1667 103.594 31 107.594H39.5C35.1 103.594 34.6667 91.927 35 86.5937H41C40.2 96.1937 45.6667 104.594 48.5 107.594H54.5C51.5 105.094 47 86.0937 46.5 81.5937C46 77.0937 48.5 60.6963 29.5 64.5937Z" stroke="#1498D5" stroke-width="2"/>
</svg>
